<svg width="1042" height="105" viewBox="0 0 1042 105" fill="none" xmlns="http://www.w3.org/2000/svg">
<path d="M47.72 94.072C50.696 94.072 53.48 93.592 56.072 92.632C58.664 91.672 60.92 90.184 62.84 88.168C64.856 86.152 66.44 83.56 67.592 80.392C68.744 77.224 69.32 73.432 69.32 69.016V36.472C69.32 32.056 68.744 28.264 67.592 25.096C66.44 21.928 64.856 19.336 62.84 17.32C60.92 15.304 58.664 13.816 56.072 12.856C53.48 11.896 50.696 11.416 47.72 11.416C44.744 11.416 41.96 11.896 39.368 12.856C36.776 13.816 34.472 15.304 32.456 17.32C30.536 19.336 29 21.928 27.848 25.096C26.696 28.264 26.12 32.056 26.12 36.472V69.016C26.12 73.432 26.696 77.224 27.848 80.392C29 83.56 30.536 86.152 32.456 88.168C34.472 90.184 36.776 91.672 39.368 92.632C41.96 93.592 44.744 94.072 47.72 94.072ZM47.72 104.728C41 104.728 34.76 103.576 29 101.272C23.24 98.968 18.248 95.656 14.024 91.336C9.8 86.92 6.488 81.496 4.088 75.064C1.688 68.536 0.488 61.096 0.488 52.744C0.488 44.392 1.688 37 4.088 30.568C6.488 24.04 9.8 18.616 14.024 14.296C18.248 9.87999 23.24 6.51999 29 4.21599C34.76 1.91199 41 0.759995 47.72 0.759995C54.44 0.759995 60.68 1.91199 66.44 4.21599C72.2 6.51999 77.192 9.87999 81.416 14.296C85.64 18.616 88.952 24.04 91.352 30.568C93.752 37 94.952 44.392 94.952 52.744C94.952 61.096 93.752 68.536 91.352 75.064C88.952 81.496 85.64 86.92 81.416 91.336C77.192 95.656 72.2 98.968 66.44 101.272C60.68 103.576 54.44 104.728 47.72 104.728ZM141.779 93.496H151.859V11.992H141.779V2.488H185.267V11.992H175.187V46.408H188.147L197.507 24.808C199.523 20.2 201.491 16.36 203.411 13.288C205.331 10.216 207.299 7.768 209.315 5.944C211.331 4.024 213.443 2.68 215.651 1.912C217.859 1.144 220.211 0.759995 222.707 0.759995C226.739 0.759995 229.955 1.95999 232.355 4.35999C234.851 6.75999 236.099 9.784 236.099 13.432C236.099 17.464 234.947 20.632 232.643 22.936C230.435 25.144 227.555 26.248 224.003 26.248C220.835 26.248 218.339 25.432 216.515 23.8C214.787 22.072 213.683 20.056 213.203 17.752H212.627C211.763 19.096 210.755 20.776 209.603 22.792C208.547 24.808 207.491 27.064 206.435 29.56L197.795 49.144C200.195 49.336 202.355 49.768 204.275 50.44C206.195 51.016 207.971 51.928 209.603 53.176C211.235 54.424 212.723 55.96 214.067 57.784C215.411 59.608 216.755 61.864 218.099 64.552L232.355 93.496H241.283V103H211.331L188.147 56.344H175.187V93.496H185.267V103H141.779V93.496ZM294.095 94.072C297.071 94.072 299.855 93.592 302.447 92.632C305.039 91.672 307.295 90.184 309.215 88.168C311.231 86.152 312.815 83.56 313.967 80.392C315.119 77.224 315.695 73.432 315.695 69.016V36.472C315.695 32.056 315.119 28.264 313.967 25.096C312.815 21.928 311.231 19.336 309.215 17.32C307.295 15.304 305.039 13.816 302.447 12.856C299.855 11.896 297.071 11.416 294.095 11.416C291.119 11.416 288.335 11.896 285.743 12.856C283.151 13.816 280.847 15.304 278.831 17.32C276.911 19.336 275.375 21.928 274.223 25.096C273.071 28.264 272.495 32.056 272.495 36.472V69.016C272.495 73.432 273.071 77.224 274.223 80.392C275.375 83.56 276.911 86.152 278.831 88.168C280.847 90.184 283.151 91.672 285.743 92.632C288.335 93.592 291.119 94.072 294.095 94.072ZM294.095 104.728C287.375 104.728 281.135 103.576 275.375 101.272C269.615 98.968 264.623 95.656 260.399 91.336C256.175 86.92 252.863 81.496 250.463 75.064C248.063 68.536 246.863 61.096 246.863 52.744C246.863 44.392 248.063 37 250.463 30.568C252.863 24.04 256.175 18.616 260.399 14.296C264.623 9.87999 269.615 6.51999 275.375 4.21599C281.135 1.91199 287.375 0.759995 294.095 0.759995C300.815 0.759995 307.055 1.91199 312.815 4.21599C318.575 6.51999 323.567 9.87999 327.791 14.296C332.015 18.616 335.327 24.04 337.727 30.568C340.127 37 341.327 44.392 341.327 52.744C341.327 61.096 340.127 68.536 337.727 75.064C335.327 81.496 332.015 86.92 327.791 91.336C323.567 95.656 318.575 98.968 312.815 101.272C307.055 103.576 300.815 104.728 294.095 104.728ZM354.685 93.496H364.765V11.992H354.685V2.488H390.973L413.437 50.872H414.013L435.037 2.488H471.901V11.992H461.821V93.496H471.901V103H428.413V93.496H438.493V20.2H437.629L429.277 41.224L407.245 87.592L385.357 41.224L376.861 20.2H375.997V93.496H386.077V103H354.685V93.496ZM483.779 93.496H493.859V11.992H483.779V2.488H588.899V11.992H578.963V93.496H588.899V103H545.411V93.496H555.491V12.856H517.187V93.496H527.267V103H483.779V93.496ZM596.75 93.496H603.95L635.198 2.488H655.07L686.318 93.496H693.518V103H651.326V93.496H662.846L655.934 72.328H623.102L616.19 93.496H627.71V103H596.75V93.496ZM625.982 62.392H653.342L639.806 20.056H639.23L625.982 62.392ZM701.326 93.496H711.406V11.992H701.326V2.488H744.814V11.992H734.734V46.12H773.038V11.992H762.958V2.488H806.446V11.992H796.366V93.496H806.446V103H762.958V93.496H773.038V56.488H734.734V93.496H744.814V103H701.326V93.496ZM818.185 93.496H828.265V11.992H818.185V2.488H861.097V11.992H851.017V48.856L849.577 74.056H850.153L891.049 15.016V11.992H880.969V2.488H923.881V11.992H913.801V93.496H923.881V103H880.969V93.496H891.049V56.632L892.489 31.432H891.913L851.017 90.472V93.496H861.097V103H818.185V93.496ZM935.748 93.496H945.828V11.992H935.748V2.488H978.66V11.992H968.58V48.856L967.14 74.056H967.716L1008.61 15.016V11.992H998.532V2.488H1041.44V11.992H1031.36V93.496H1041.44V103H998.532V93.496H1008.61V56.632L1010.05 31.432H1009.48L968.58 90.472V93.496H978.66V103H935.748V93.496Z" fill="#FAFAFA"/>
</svg>
