<svg width="39" height="35" viewBox="0 0 39 35" fill="none" xmlns="http://www.w3.org/2000/svg">
<path d="M0.742203 34.3438L38.2578 34.3438C38.4684 34.3438 38.6406 34.1715 38.6406 33.9609L38.6406 30.8984C38.6406 30.6879 38.4684 30.5156 38.2578 30.5156L0.742202 30.5156C0.531654 30.5156 0.35939 30.6879 0.35939 30.8984L0.35939 33.9609C0.35939 34.1715 0.531654 34.3438 0.742203 34.3438ZM0.7422 4.48436L38.2578 4.48436C38.4684 4.48436 38.6406 4.3121 38.6406 4.10155L38.6406 1.03905C38.6406 0.828503 38.4684 0.656235 38.2578 0.656235L0.7422 0.656238C0.531651 0.656238 0.359387 0.828506 0.359387 1.03905L0.359388 4.10155C0.359388 4.3121 0.531652 4.48436 0.7422 4.48436ZM0.742201 19.4141L38.2578 19.4141C38.4684 19.4141 38.6406 19.2418 38.6406 19.0312L38.6406 15.9687C38.6406 15.7582 38.4684 15.5859 38.2578 15.5859L0.742201 15.5859C0.531653 15.5859 0.359389 15.7582 0.359389 15.9687L0.359389 19.0312C0.359389 19.2418 0.531653 19.4141 0.742201 19.4141Z" fill="black"/>
</svg>
