<svg width="23" height="23" viewBox="0 0 23 23" fill="none" xmlns="http://www.w3.org/2000/svg">
<path d="M21.2031 4.3125H17.25V1.79688H15.8125V4.3125H7.1875V1.79688H5.75V4.3125H1.79688C1.51104 4.31283 1.23701 4.42653 1.03489 4.62864C0.832778 4.83076 0.719083 5.10479 0.71875 5.39062V20.4844C0.719083 20.7702 0.832778 21.0442 1.03489 21.2464C1.23701 21.4485 1.51104 21.5622 1.79688 21.5625H21.2031C21.489 21.5622 21.763 21.4485 21.9651 21.2464C22.1672 21.0442 22.2809 20.7702 22.2812 20.4844V5.39062C22.2809 5.10479 22.1672 4.83076 21.9651 4.62864C21.763 4.42653 21.489 4.31283 21.2031 4.3125ZM20.8438 20.125H2.15625V5.75H5.75V7.54688H7.1875V5.75H15.8125V7.54688H17.25V5.75H20.8438V20.125Z" fill="black"/>
<path d="M5.03125 10.0625H6.46875V11.5H5.03125V10.0625Z" fill="black"/>
<path d="M8.98438 10.0625H10.4219V11.5H8.98438V10.0625Z" fill="black"/>
<path d="M12.5781 10.0625H14.0156V11.5H12.5781V10.0625Z" fill="black"/>
<path d="M16.5312 10.0625H17.9688V11.5H16.5312V10.0625Z" fill="black"/>
<path d="M5.03125 13.2969H6.46875V14.7344H5.03125V13.2969Z" fill="black"/>
<path d="M8.98438 13.2969H10.4219V14.7344H8.98438V13.2969Z" fill="black"/>
<path d="M12.5781 13.2969H14.0156V14.7344H12.5781V13.2969Z" fill="black"/>
<path d="M16.5312 13.2969H17.9688V14.7344H16.5312V13.2969Z" fill="black"/>
<path d="M5.03125 16.5312H6.46875V17.9688H5.03125V16.5312Z" fill="black"/>
<path d="M8.98438 16.5312H10.4219V17.9688H8.98438V16.5312Z" fill="black"/>
<path d="M12.5781 16.5312H14.0156V17.9688H12.5781V16.5312Z" fill="black"/>
<path d="M16.5312 16.5312H17.9688V17.9688H16.5312V16.5312Z" fill="black"/>
</svg>
