<svg width="102" height="18" viewBox="0 0 102 18" fill="none" xmlns="http://www.w3.org/2000/svg">
<path d="M5.148 14.216C4.44 14.216 3.81 14.096 3.258 13.856C2.718 13.616 2.262 13.28 1.89 12.848C1.518 12.416 1.236 11.9 1.044 11.3C0.852 10.7 0.756 10.04 0.756 9.32C0.756 8.552 0.87 7.868 1.098 7.268C1.326 6.656 1.644 6.14 2.052 5.72C2.46 5.3 2.94 4.982 3.492 4.766C4.056 4.538 4.668 4.424 5.328 4.424C6.36 4.424 7.164 4.64 7.74 5.072C8.328 5.504 8.622 6.056 8.622 6.728C8.622 7.148 8.508 7.478 8.28 7.718C8.052 7.946 7.746 8.06 7.362 8.06C6.966 8.06 6.666 7.952 6.462 7.736C6.258 7.508 6.156 7.226 6.156 6.89C6.156 6.614 6.228 6.374 6.372 6.17C6.516 5.966 6.702 5.816 6.93 5.72V5.63C6.786 5.57 6.606 5.516 6.39 5.468C6.174 5.408 5.904 5.378 5.58 5.378C5.184 5.378 4.824 5.45 4.5 5.594C4.176 5.738 3.9 5.942 3.672 6.206C3.444 6.458 3.264 6.764 3.132 7.124C3.012 7.484 2.952 7.886 2.952 8.33V9.896C2.952 10.796 3.174 11.51 3.618 12.038C4.062 12.554 4.668 12.812 5.436 12.812C6.156 12.812 6.714 12.656 7.11 12.344C7.518 12.032 7.83 11.648 8.046 11.192L8.82 11.66C8.712 11.972 8.556 12.278 8.352 12.578C8.148 12.878 7.896 13.154 7.596 13.406C7.296 13.646 6.942 13.844 6.534 14C6.126 14.144 5.664 14.216 5.148 14.216ZM12.9327 14.216C11.9967 14.216 11.2887 13.988 10.8087 13.532C10.3407 13.064 10.1067 12.428 10.1067 11.624C10.1067 10.712 10.4307 10.022 11.0787 9.554C11.7267 9.086 12.7827 8.852 14.2467 8.852H15.5427V7.628C15.5427 6.896 15.3807 6.338 15.0567 5.954C14.7327 5.57 14.2227 5.378 13.5267 5.378C12.9387 5.378 12.4947 5.462 12.1947 5.63V5.702C12.3267 5.762 12.4467 5.87 12.5547 6.026C12.6747 6.17 12.7347 6.374 12.7347 6.638C12.7347 6.974 12.6327 7.244 12.4287 7.448C12.2367 7.652 11.9547 7.754 11.5827 7.754C11.2707 7.754 11.0067 7.652 10.7907 7.448C10.5867 7.232 10.4847 6.944 10.4847 6.584C10.4847 6.308 10.5627 6.044 10.7187 5.792C10.8867 5.528 11.1267 5.294 11.4387 5.09C11.7507 4.886 12.1287 4.724 12.5727 4.604C13.0287 4.484 13.5507 4.424 14.1387 4.424C15.2667 4.424 16.1187 4.688 16.6947 5.216C17.2707 5.744 17.5587 6.482 17.5587 7.43V13.046H18.7827V13.856C18.6147 13.952 18.3987 14.036 18.1347 14.108C17.8707 14.18 17.5887 14.216 17.2887 14.216C16.7367 14.216 16.3287 14.078 16.0647 13.802C15.8127 13.514 15.6867 13.148 15.6867 12.704V12.614H15.5967C15.5127 12.818 15.4047 13.016 15.2727 13.208C15.1407 13.388 14.9667 13.556 14.7507 13.712C14.5467 13.868 14.2947 13.988 13.9947 14.072C13.6947 14.168 13.3407 14.216 12.9327 14.216ZM13.7247 12.956C14.2527 12.956 14.6847 12.83 15.0207 12.578C15.3687 12.326 15.5427 11.912 15.5427 11.336V9.734H14.4627C13.6107 9.734 13.0167 9.872 12.6807 10.148C12.3447 10.424 12.1767 10.82 12.1767 11.336V11.678C12.1767 12.11 12.3147 12.434 12.5907 12.65C12.8667 12.854 13.2447 12.956 13.7247 12.956ZM20.1279 13.028H21.3519V6.08L20.1279 5.846V5.054L23.3139 4.424V6.098H23.4039C23.4759 5.894 23.5839 5.69 23.7279 5.486C23.8719 5.282 24.0519 5.102 24.2679 4.946C24.4839 4.79 24.7359 4.664 25.0239 4.568C25.3119 4.472 25.6419 4.424 26.0139 4.424C26.8179 4.424 27.4479 4.574 27.9039 4.874C28.3719 5.162 28.6959 5.612 28.8759 6.224H28.9299C29.0259 6.008 29.1519 5.792 29.3079 5.576C29.4759 5.36 29.6739 5.168 29.9019 5C30.1299 4.82 30.3939 4.682 30.6939 4.586C30.9939 4.478 31.3419 4.424 31.7379 4.424C32.8539 4.424 33.6459 4.718 34.1139 5.306C34.5819 5.882 34.8159 6.752 34.8159 7.916V13.028H36.0399V14H31.6479V13.028H32.7999V8.024C32.7999 7.244 32.6499 6.674 32.3499 6.314C32.0619 5.954 31.6119 5.774 30.9999 5.774C30.7599 5.774 30.5259 5.81 30.2979 5.882C30.0699 5.942 29.8659 6.044 29.6859 6.188C29.5059 6.32 29.3619 6.494 29.2539 6.71C29.1459 6.914 29.0919 7.16 29.0919 7.448V13.028H30.2439V14H25.9239V13.028H27.0759V8.024C27.0759 7.244 26.9259 6.674 26.6259 6.314C26.3379 5.954 25.8879 5.774 25.2759 5.774C25.0359 5.774 24.8019 5.81 24.5739 5.882C24.3459 5.942 24.1419 6.044 23.9619 6.188C23.7819 6.32 23.6379 6.494 23.5299 6.71C23.4219 6.914 23.3679 7.16 23.3679 7.448V13.028H24.5199V14H20.1279V13.028ZM37.1921 16.628H38.4161V6.08L37.1921 5.846V5.054L40.4321 4.424V6.044H40.5221C40.7141 5.612 41.0261 5.234 41.4581 4.91C41.8901 4.586 42.4541 4.424 43.1501 4.424C43.7261 4.424 44.2481 4.538 44.7161 4.766C45.1841 4.982 45.5801 5.3 45.9041 5.72C46.2281 6.14 46.4801 6.656 46.6601 7.268C46.8401 7.868 46.9301 8.552 46.9301 9.32C46.9301 10.088 46.8401 10.778 46.6601 11.39C46.4801 11.99 46.2281 12.5 45.9041 12.92C45.5801 13.34 45.1841 13.664 44.7161 13.892C44.2481 14.108 43.7261 14.216 43.1501 14.216C42.4421 14.216 41.8721 14.054 41.4401 13.73C41.0201 13.406 40.7141 13.028 40.5221 12.596H40.4321V16.628H42.0161V17.6H37.1921V16.628ZM42.5201 12.92C43.2041 12.92 43.7501 12.686 44.1581 12.218C44.5661 11.75 44.7701 11.102 44.7701 10.274V8.366C44.7701 7.538 44.5661 6.89 44.1581 6.422C43.7501 5.954 43.2041 5.72 42.5201 5.72C42.2441 5.72 41.9801 5.762 41.7281 5.846C41.4881 5.918 41.2661 6.032 41.0621 6.188C40.8701 6.344 40.7141 6.53 40.5941 6.746C40.4861 6.962 40.4321 7.208 40.4321 7.484V11.156C40.4321 11.432 40.4861 11.678 40.5941 11.894C40.7141 12.11 40.8701 12.296 41.0621 12.452C41.2661 12.608 41.4881 12.728 41.7281 12.812C41.9801 12.884 42.2441 12.92 42.5201 12.92ZM49.7859 14.216C49.3659 14.216 49.0359 14.09 48.7959 13.838C48.5679 13.586 48.4539 13.286 48.4539 12.938V12.83C48.4539 12.482 48.5679 12.182 48.7959 11.93C49.0359 11.678 49.3659 11.552 49.7859 11.552C50.2059 11.552 50.5299 11.678 50.7579 11.93C50.9979 12.182 51.1179 12.482 51.1179 12.83V12.938C51.1179 13.286 50.9979 13.586 50.7579 13.838C50.5299 14.09 50.2059 14.216 49.7859 14.216ZM55.9142 14.144C55.2302 14.144 54.7502 14 54.4742 13.712C54.1982 13.424 54.0602 12.968 54.0602 12.344V5.684H52.8362V4.64H53.1422C53.5862 4.64 53.8922 4.562 54.0602 4.406C54.2282 4.25 54.3662 4.022 54.4742 3.722L55.0322 2.138H56.0762V4.64H58.3262V5.684H56.0762V12.974H58.3262V13.766C58.1222 13.862 57.7922 13.946 57.3362 14.018C56.8922 14.102 56.4182 14.144 55.9142 14.144ZM59.5381 13.028H60.7621V6.08L59.5381 5.846V5.054L62.7241 4.424V6.098H62.8141C62.8981 5.882 63.0001 5.678 63.1201 5.486C63.2521 5.282 63.4081 5.102 63.5881 4.946C63.7801 4.79 63.9961 4.664 64.2361 4.568C64.4881 4.472 64.7701 4.424 65.0821 4.424C65.6341 4.424 66.0721 4.562 66.3961 4.838C66.7321 5.114 66.9001 5.51 66.9001 6.026C66.9001 6.434 66.7921 6.758 66.5761 6.998C66.3721 7.226 66.0901 7.34 65.7301 7.34C65.3581 7.34 65.0641 7.244 64.8481 7.052C64.6441 6.848 64.5421 6.596 64.5421 6.296C64.5421 6.092 64.5841 5.924 64.6681 5.792C64.7521 5.648 64.8541 5.564 64.9741 5.54V5.486C64.9381 5.474 64.8961 5.468 64.8481 5.468C64.8001 5.456 64.7281 5.45 64.6321 5.45C64.4041 5.45 64.1761 5.51 63.9481 5.63C63.7321 5.75 63.5341 5.906 63.3541 6.098C63.1861 6.278 63.0481 6.488 62.9401 6.728C62.8321 6.956 62.7781 7.184 62.7781 7.412V13.028H64.3621V14H59.5381V13.028ZM70.6417 14.216C69.7057 14.216 68.9977 13.988 68.5177 13.532C68.0497 13.064 67.8157 12.428 67.8157 11.624C67.8157 10.712 68.1397 10.022 68.7877 9.554C69.4357 9.086 70.4917 8.852 71.9557 8.852H73.2517V7.628C73.2517 6.896 73.0897 6.338 72.7657 5.954C72.4417 5.57 71.9317 5.378 71.2357 5.378C70.6477 5.378 70.2037 5.462 69.9037 5.63V5.702C70.0357 5.762 70.1557 5.87 70.2637 6.026C70.3837 6.17 70.4437 6.374 70.4437 6.638C70.4437 6.974 70.3417 7.244 70.1377 7.448C69.9457 7.652 69.6637 7.754 69.2917 7.754C68.9797 7.754 68.7157 7.652 68.4997 7.448C68.2957 7.232 68.1937 6.944 68.1937 6.584C68.1937 6.308 68.2717 6.044 68.4277 5.792C68.5957 5.528 68.8357 5.294 69.1477 5.09C69.4597 4.886 69.8377 4.724 70.2817 4.604C70.7377 4.484 71.2597 4.424 71.8477 4.424C72.9757 4.424 73.8277 4.688 74.4037 5.216C74.9797 5.744 75.2677 6.482 75.2677 7.43V13.046H76.4917V13.856C76.3237 13.952 76.1077 14.036 75.8437 14.108C75.5797 14.18 75.2977 14.216 74.9977 14.216C74.4457 14.216 74.0377 14.078 73.7737 13.802C73.5217 13.514 73.3957 13.148 73.3957 12.704V12.614H73.3057C73.2217 12.818 73.1137 13.016 72.9817 13.208C72.8497 13.388 72.6757 13.556 72.4597 13.712C72.2557 13.868 72.0037 13.988 71.7037 14.072C71.4037 14.168 71.0497 14.216 70.6417 14.216ZM71.4337 12.956C71.9617 12.956 72.3937 12.83 72.7297 12.578C73.0777 12.326 73.2517 11.912 73.2517 11.336V9.734H72.1717C71.3197 9.734 70.7257 9.872 70.3897 10.148C70.0537 10.424 69.8857 10.82 69.8857 11.336V11.678C69.8857 12.11 70.0237 12.434 70.2997 12.65C70.5757 12.854 70.9537 12.956 71.4337 12.956ZM77.7713 5.612H76.8713V4.64H81.1373V5.612H79.9493L82.1633 12.038H82.2533L84.4673 5.612H83.2793V4.64H86.5733V5.612H85.6733L82.5053 14H80.9393L77.7713 5.612ZM91.5792 14.216C90.8832 14.216 90.2652 14.102 89.7252 13.874C89.1852 13.634 88.7292 13.298 88.3572 12.866C87.9852 12.434 87.6972 11.918 87.4932 11.318C87.3012 10.718 87.2052 10.052 87.2052 9.32C87.2052 8.576 87.3072 7.904 87.5112 7.304C87.7272 6.704 88.0212 6.194 88.3932 5.774C88.7772 5.342 89.2272 5.012 89.7432 4.784C90.2712 4.544 90.8472 4.424 91.4712 4.424C92.1072 4.424 92.6772 4.532 93.1812 4.748C93.6852 4.952 94.1112 5.246 94.4592 5.63C94.8192 6.014 95.0952 6.476 95.2872 7.016C95.4792 7.556 95.5752 8.156 95.5752 8.816V9.302H89.3832V9.878C89.3832 10.814 89.6172 11.54 90.0852 12.056C90.5532 12.56 91.1832 12.812 91.9752 12.812C92.6712 12.812 93.2292 12.662 93.6492 12.362C94.0812 12.05 94.3992 11.666 94.6032 11.21L95.3772 11.678C95.2692 11.99 95.1072 12.296 94.8912 12.596C94.6872 12.896 94.4292 13.166 94.1172 13.406C93.8052 13.646 93.4392 13.844 93.0192 14C92.5992 14.144 92.1192 14.216 91.5792 14.216ZM89.3832 8.348H93.4872V8.15C93.4872 7.286 93.3192 6.62 92.9832 6.152C92.6592 5.672 92.1552 5.432 91.4712 5.432C90.7992 5.432 90.2832 5.666 89.9232 6.134C89.5632 6.59 89.3832 7.25 89.3832 8.114V8.348ZM96.851 13.028H98.075V1.976L96.851 1.742V0.95L100.091 0.319999V13.028H101.315V14H96.851V13.028Z" fill="white"/>
</svg>
