<svg width="1460" height="127" viewBox="0 0 1460 127" fill="none" xmlns="http://www.w3.org/2000/svg">
<path d="M0.456 93.496H9.816L38.616 54.904L10.536 11.992H2.616V2.488H46.392V11.992H37.032L54.168 38.488H55.032L73.32 11.992H63.96V2.488H96.216V11.992H86.856L60.504 47.704L90.456 93.496H98.376V103H54.6V93.496H63.96L44.952 64.12H44.088L23.496 93.496H32.856V103H0.456V93.496ZM104.344 93.496H111.544L142.792 2.488H162.664L193.912 93.496H201.112V103H158.92V93.496H170.44L163.528 72.328H130.696L123.784 93.496H135.304V103H104.344V93.496ZM133.576 62.392H160.936L147.4 20.056H146.824L133.576 62.392ZM208.92 93.496H219V11.992H208.92V2.488H264.36C274.92 2.488 282.792 4.84 287.976 9.54399C293.256 14.152 295.896 20.968 295.896 29.992C295.896 39.112 293.064 46.264 287.4 51.448C281.736 56.536 273.624 59.08 263.064 59.08H242.328V93.496H256.008V103H208.92V93.496ZM242.328 48.712H256.584C261.48 48.712 265.272 47.56 267.96 45.256C270.744 42.856 272.136 39.256 272.136 34.456V27.112C272.136 22.312 270.744 18.76 267.96 16.456C265.272 14.056 261.48 12.856 256.584 12.856H242.328V48.712ZM306.681 51.16H349.881V67H306.681V51.16ZM362.904 93.496H372.984V11.992H362.904V2.488H406.392V11.992H396.312V46.408H409.272L418.632 24.808C420.648 20.2 422.616 16.36 424.536 13.288C426.456 10.216 428.424 7.768 430.44 5.944C432.456 4.024 434.568 2.68 436.776 1.912C438.984 1.144 441.336 0.759995 443.832 0.759995C447.864 0.759995 451.08 1.95999 453.48 4.35999C455.976 6.75999 457.224 9.784 457.224 13.432C457.224 17.464 456.072 20.632 453.768 22.936C451.56 25.144 448.68 26.248 445.128 26.248C441.96 26.248 439.464 25.432 437.64 23.8C435.912 22.072 434.808 20.056 434.328 17.752H433.752C432.888 19.096 431.88 20.776 430.728 22.792C429.672 24.808 428.616 27.064 427.56 29.56L418.92 49.144C421.32 49.336 423.48 49.768 425.4 50.44C427.32 51.016 429.096 51.928 430.728 53.176C432.36 54.424 433.848 55.96 435.192 57.784C436.536 59.608 437.88 61.864 439.224 64.552L453.48 93.496H462.408V103H432.456L409.272 56.344H396.312V93.496H406.392V103H362.904V93.496ZM470.482 93.496H480.562V11.992H470.482V2.488H513.394V11.992H503.314V48.856L501.874 74.056H502.45L543.346 15.016V11.992H533.266V2.488H576.178V11.992H566.098V93.496H576.178V103H533.266V93.496H543.346V56.632L544.786 31.432H544.21L503.314 90.472V93.496H513.394V103H470.482V93.496ZM617.625 93.496H624.825L656.073 2.488H675.945L707.193 93.496H714.393V103H672.201V93.496H683.721L676.809 72.328H643.977L637.065 93.496H648.585V103H617.625V93.496ZM646.857 62.392H674.217L660.681 20.056H660.105L646.857 62.392ZM722.201 93.496H732.281V11.992H722.201V2.488H774.185C780.041 2.488 785.081 3.112 789.305 4.35999C793.529 5.51199 796.985 7.144 799.673 9.256C802.457 11.368 804.473 13.864 805.721 16.744C807.065 19.624 807.737 22.744 807.737 26.104C807.737 29.56 807.113 32.632 805.865 35.32C804.713 38.008 803.129 40.312 801.113 42.232C799.097 44.056 796.745 45.592 794.057 46.84C791.465 48.088 788.777 49 785.993 49.576V50.296C788.873 50.68 791.849 51.448 794.921 52.6C797.993 53.752 800.777 55.336 803.273 57.352C805.769 59.368 807.785 61.864 809.321 64.84C810.953 67.72 811.769 71.128 811.769 75.064C811.769 83.992 808.889 90.904 803.129 95.8C797.369 100.6 788.681 103 777.065 103H722.201V93.496ZM755.609 92.776H771.593C776.777 92.776 780.761 91.48 783.545 88.888C786.425 86.296 787.865 82.648 787.865 77.944V71.176C787.865 66.472 786.425 62.824 783.545 60.232C780.761 57.64 776.777 56.344 771.593 56.344H755.609V92.776ZM755.609 46.408H769.001C778.889 46.408 783.833 41.848 783.833 32.728V26.392C783.833 17.272 778.889 12.712 769.001 12.712H755.609V46.408ZM840.932 93.496H854.612V12.856H835.892V29.272H819.188V2.488H913.364V29.272H896.66V12.856H877.94V93.496H891.62V103H840.932V93.496ZM968.736 94.072C971.712 94.072 974.496 93.592 977.088 92.632C979.68 91.672 981.936 90.184 983.856 88.168C985.872 86.152 987.456 83.56 988.608 80.392C989.76 77.224 990.336 73.432 990.336 69.016V36.472C990.336 32.056 989.76 28.264 988.608 25.096C987.456 21.928 985.872 19.336 983.856 17.32C981.936 15.304 979.68 13.816 977.088 12.856C974.496 11.896 971.712 11.416 968.736 11.416C965.76 11.416 962.976 11.896 960.384 12.856C957.792 13.816 955.488 15.304 953.472 17.32C951.552 19.336 950.016 21.928 948.864 25.096C947.712 28.264 947.136 32.056 947.136 36.472V69.016C947.136 73.432 947.712 77.224 948.864 80.392C950.016 83.56 951.552 86.152 953.472 88.168C955.488 90.184 957.792 91.672 960.384 92.632C962.976 93.592 965.76 94.072 968.736 94.072ZM968.736 104.728C962.016 104.728 955.776 103.576 950.016 101.272C944.256 98.968 939.264 95.656 935.04 91.336C930.816 86.92 927.504 81.496 925.104 75.064C922.704 68.536 921.504 61.096 921.504 52.744C921.504 44.392 922.704 37 925.104 30.568C927.504 24.04 930.816 18.616 935.04 14.296C939.264 9.87999 944.256 6.51999 950.016 4.21599C955.776 1.91199 962.016 0.759995 968.736 0.759995C975.456 0.759995 981.696 1.91199 987.456 4.21599C993.216 6.51999 998.208 9.87999 1002.43 14.296C1006.66 18.616 1009.97 24.04 1012.37 30.568C1014.77 37 1015.97 44.392 1015.97 52.744C1015.97 61.096 1014.77 68.536 1012.37 75.064C1009.97 81.496 1006.66 86.92 1002.43 91.336C998.208 95.656 993.216 98.968 987.456 101.272C981.696 103.576 975.456 104.728 968.736 104.728ZM1018.25 92.488H1030.06C1035.91 85.096 1040.47 75.544 1043.74 63.832C1047 52.12 1048.63 38.536 1048.63 23.08V11.992H1036.39V2.488H1116.46V11.992H1106.52V92.488H1122.22V126.04H1104.22V103H1036.25V126.04H1018.25V92.488ZM1083.19 92.488V13H1060.15V23.944C1060.15 31.144 1059.77 38.056 1059 44.68C1058.23 51.304 1057.08 57.544 1055.55 63.4C1054.11 69.256 1052.33 74.68 1050.22 79.672C1048.2 84.568 1045.9 88.84 1043.31 92.488H1083.19ZM1177.28 94.072C1180.26 94.072 1183.04 93.592 1185.63 92.632C1188.23 91.672 1190.48 90.184 1192.4 88.168C1194.42 86.152 1196 83.56 1197.15 80.392C1198.31 77.224 1198.88 73.432 1198.88 69.016V36.472C1198.88 32.056 1198.31 28.264 1197.15 25.096C1196 21.928 1194.42 19.336 1192.4 17.32C1190.48 15.304 1188.23 13.816 1185.63 12.856C1183.04 11.896 1180.26 11.416 1177.28 11.416C1174.31 11.416 1171.52 11.896 1168.93 12.856C1166.34 13.816 1164.03 15.304 1162.02 17.32C1160.1 19.336 1158.56 21.928 1157.41 25.096C1156.26 28.264 1155.68 32.056 1155.68 36.472V69.016C1155.68 73.432 1156.26 77.224 1157.41 80.392C1158.56 83.56 1160.1 86.152 1162.02 88.168C1164.03 90.184 1166.34 91.672 1168.93 92.632C1171.52 93.592 1174.31 94.072 1177.28 94.072ZM1177.28 104.728C1170.56 104.728 1164.32 103.576 1158.56 101.272C1152.8 98.968 1147.81 95.656 1143.59 91.336C1139.36 86.92 1136.05 81.496 1133.65 75.064C1131.25 68.536 1130.05 61.096 1130.05 52.744C1130.05 44.392 1131.25 37 1133.65 30.568C1136.05 24.04 1139.36 18.616 1143.59 14.296C1147.81 9.87999 1152.8 6.51999 1158.56 4.21599C1164.32 1.91199 1170.56 0.759995 1177.28 0.759995C1184 0.759995 1190.24 1.91199 1196 4.21599C1201.76 6.51999 1206.75 9.87999 1210.98 14.296C1215.2 18.616 1218.51 24.04 1220.91 30.568C1223.31 37 1224.51 44.392 1224.51 52.744C1224.51 61.096 1223.31 68.536 1220.91 75.064C1218.51 81.496 1215.2 86.92 1210.98 91.336C1206.75 95.656 1201.76 98.968 1196 101.272C1190.24 103.576 1184 104.728 1177.28 104.728ZM1237.87 93.496H1247.95V11.992H1237.87V2.488H1274.16L1296.62 50.872H1297.2L1318.22 2.488H1355.09V11.992H1345.01V93.496H1355.09V103H1311.6V93.496H1321.68V20.2H1320.82L1312.46 41.224L1290.43 87.592L1268.54 41.224L1260.05 20.2H1259.18V93.496H1269.26V103H1237.87V93.496ZM1363.08 93.496H1370.28L1401.53 2.488H1421.4L1452.65 93.496H1459.85V103H1417.65V93.496H1429.17L1422.26 72.328H1389.43L1382.52 93.496H1394.04V103H1363.08V93.496ZM1392.31 62.392H1419.67L1406.13 20.056H1405.56L1392.31 62.392Z" fill="#FAFAFA"/>
</svg>
