<svg width="1042" height="105" fill="none" xmlns="http://www.w3.org/2000/svg"><path d="M47.72 94.072c2.976 0 5.76-.48 8.352-1.44a17.742 17.742 0 006.768-4.464c2.016-2.016 3.6-4.608 4.752-7.776 1.152-3.168 1.728-6.96 1.728-11.376V36.472c0-4.416-.576-8.208-1.728-11.376-1.152-3.168-2.736-5.76-4.752-7.776a17.742 17.742 0 00-6.768-4.464c-2.592-.96-5.376-1.44-8.352-1.44s-5.76.48-8.352 1.44c-2.592.96-4.896 2.448-6.912 4.464-1.92 2.016-3.456 4.608-4.608 7.776-1.152 3.168-1.728 6.96-1.728 11.376v32.544c0 4.416.576 8.208 1.728 11.376 1.152 3.168 2.688 5.76 4.608 7.776 2.016 2.016 4.32 3.504 6.912 4.464 2.592.96 5.376 1.44 8.352 1.44zm0 10.656c-6.72 0-12.96-1.152-18.72-3.456-5.76-2.304-10.752-5.616-14.976-9.936-4.224-4.416-7.536-9.84-9.936-16.272-2.4-6.528-3.6-13.968-3.6-22.32s1.2-15.744 3.6-22.176c2.4-6.528 5.712-11.952 9.936-16.272C18.248 9.88 23.24 6.52 29 4.216 34.76 1.912 41 .76 47.72.76c6.72 0 12.96 1.152 18.72 3.456C72.2 6.52 77.192 9.88 81.416 14.296c4.224 4.32 7.536 9.744 9.936 16.272 2.4 6.432 3.6 13.824 3.6 22.176 0 8.352-1.2 15.792-3.6 22.32-2.4 6.432-5.712 11.856-9.936 16.272-4.224 4.32-9.216 7.632-14.976 9.936-5.76 2.304-12 3.456-18.72 3.456zm94.059-11.232h10.08V11.992h-10.08V2.488h43.488v9.504h-10.08v34.416h12.96l9.36-21.6c2.016-4.608 3.984-8.448 5.904-11.52 1.92-3.072 3.888-5.52 5.904-7.344 2.016-1.92 4.128-3.264 6.336-4.032 2.208-.768 4.56-1.152 7.056-1.152 4.032 0 7.248 1.2 9.648 3.6 2.496 2.4 3.744 5.424 3.744 9.072 0 4.032-1.152 7.2-3.456 9.504-2.208 2.208-5.088 3.312-8.64 3.312-3.168 0-5.664-.816-7.488-2.448-1.728-1.728-2.832-3.744-3.312-6.048h-.576c-.864 1.344-1.872 3.024-3.024 5.04-1.056 2.016-2.112 4.272-3.168 6.768l-8.64 19.584c2.4.192 4.56.624 6.48 1.296a16.531 16.531 0 015.328 2.736c1.632 1.248 3.12 2.784 4.464 4.608 1.344 1.824 2.688 4.08 4.032 6.768l14.256 28.944h8.928V103h-29.952l-23.184-46.656h-12.96v37.152h10.08V103h-43.488v-9.504zm152.316.576c2.976 0 5.76-.48 8.352-1.44a17.742 17.742 0 006.768-4.464c2.016-2.016 3.6-4.608 4.752-7.776 1.152-3.168 1.728-6.96 1.728-11.376V36.472c0-4.416-.576-8.208-1.728-11.376-1.152-3.168-2.736-5.76-4.752-7.776a17.742 17.742 0 00-6.768-4.464c-2.592-.96-5.376-1.44-8.352-1.44s-5.76.48-8.352 1.44c-2.592.96-4.896 2.448-6.912 4.464-1.92 2.016-3.456 4.608-4.608 7.776-1.152 3.168-1.728 6.96-1.728 11.376v32.544c0 4.416.576 8.208 1.728 11.376 1.152 3.168 2.688 5.76 4.608 7.776 2.016 2.016 4.32 3.504 6.912 4.464 2.592.96 5.376 1.44 8.352 1.44zm0 10.656c-6.72 0-12.96-1.152-18.72-3.456-5.76-2.304-10.752-5.616-14.976-9.936-4.224-4.416-7.536-9.84-9.936-16.272-2.4-6.528-3.6-13.968-3.6-22.32s1.2-15.744 3.6-22.176c2.4-6.528 5.712-11.952 9.936-16.272 4.224-4.416 9.216-7.776 14.976-10.08 5.76-2.304 12-3.456 18.72-3.456 6.72 0 12.96 1.152 18.72 3.456 5.76 2.304 10.752 5.664 14.976 10.08 4.224 4.32 7.536 9.744 9.936 16.272 2.4 6.432 3.6 13.824 3.6 22.176 0 8.352-1.2 15.792-3.6 22.32-2.4 6.432-5.712 11.856-9.936 16.272-4.224 4.32-9.216 7.632-14.976 9.936-5.76 2.304-12 3.456-18.72 3.456zm60.59-11.232h10.08V11.992h-10.08V2.488h36.288l22.464 48.384h.576l21.024-48.384h36.864v9.504h-10.08v81.504h10.08V103h-43.488v-9.504h10.08V20.2h-.864l-8.352 21.024-22.032 46.368-21.888-46.368-8.496-21.024h-.864v73.296h10.08V103h-31.392v-9.504zm129.094 0h10.08V11.992h-10.08V2.488h105.12v9.504h-9.936v81.504h9.936V103h-43.488v-9.504h10.08v-80.64h-38.304v80.64h10.08V103h-43.488v-9.504zm112.971 0h7.2l31.248-91.008h19.872l31.248 91.008h7.2V103h-42.192v-9.504h11.52l-6.912-21.168h-32.832l-6.912 21.168h11.52V103h-30.96v-9.504zm29.232-31.104h27.36l-13.536-42.336h-.576l-13.248 42.336zm75.344 31.104h10.08V11.992h-10.08V2.488h43.488v9.504h-10.08V46.12h38.304V11.992h-10.08V2.488h43.488v9.504h-10.08v81.504h10.08V103h-43.488v-9.504h10.08V56.488h-38.304v37.008h10.08V103h-43.488v-9.504zm116.859 0h10.08V11.992h-10.08V2.488h42.912v9.504h-10.08v36.864l-1.44 25.2h.576l40.896-59.04v-3.024h-10.08V2.488h42.912v9.504h-10.08v81.504h10.08V103h-42.912v-9.504h10.08V56.632l1.44-25.2h-.576l-40.896 59.04v3.024h10.08V103h-42.912v-9.504zm117.563 0h10.08V11.992h-10.08V2.488h42.912v9.504h-10.08v36.864l-1.44 25.2h.576l40.894-59.04v-3.024h-10.078V2.488h42.908v9.504h-10.08v81.504h10.08V103h-42.908v-9.504h10.078V56.632l1.44-25.2h-.57l-40.9 59.04v3.024h10.08V103h-42.912v-9.504z" fill="#FAFAFA"/></svg>