<svg width="23" height="23" fill="none" xmlns="http://www.w3.org/2000/svg"><path d="M21.203 4.313H17.25V1.796h-1.438v2.516H7.188V1.796H5.75v2.516H1.797A1.08 1.08 0 00.719 5.39v15.093a1.08 1.08 0 001.078 1.078h19.406a1.08 1.08 0 001.078-1.078V5.391a1.08 1.08 0 00-1.078-1.079zm-.36 15.812H2.157V5.75H5.75v1.797h1.438V5.75h8.625v1.797h1.437V5.75h3.594v14.375z" fill="#000"/><path d="M5.031 10.063H6.47V11.5H5.03v-1.438zm3.953 0h1.438V11.5H8.984v-1.438zm3.594 0h1.438V11.5h-1.438v-1.438zm3.953 0h1.438V11.5H16.53v-1.438zm-11.5 3.234H6.47v1.437H5.03v-1.437zm3.953 0h1.438v1.437H8.984v-1.437zm3.594 0h1.438v1.437h-1.438v-1.437zm3.953 0h1.438v1.437H16.53v-1.437zm-11.5 3.234H6.47v1.438H5.03V16.53zm3.953 0h1.438v1.438H8.984V16.53zm3.594 0h1.438v1.438h-1.438V16.53zm3.953 0h1.438v1.438H16.53V16.53z" fill="#000"/></svg>