<svg width="102" height="18" fill="none" xmlns="http://www.w3.org/2000/svg"><path d="M5.148 14.216c-.708 0-1.338-.12-1.89-.36a3.833 3.833 0 01-1.368-1.008 4.39 4.39 0 01-.846-1.548 6.47 6.47 0 01-.288-1.98c0-.768.114-1.452.342-2.052a4.384 4.384 0 01.954-1.548c.408-.42.888-.738 1.44-.954a4.853 4.853 0 011.836-.342c1.032 0 1.836.216 2.412.648.588.432.882.984.882 1.656 0 .42-.114.75-.342.99-.228.228-.534.342-.918.342-.396 0-.696-.108-.9-.324a1.222 1.222 0 01-.306-.846c0-.276.072-.516.216-.72.144-.204.33-.354.558-.45v-.09a3.273 3.273 0 00-.54-.162 3.081 3.081 0 00-.81-.09 2.63 2.63 0 00-1.08.216 2.33 2.33 0 00-.828.612 2.773 2.773 0 00-.54.918 3.8 3.8 0 00-.18 1.206v1.566c0 .9.222 1.614.666 2.142.444.516 1.05.774 1.818.774.72 0 1.278-.156 1.674-.468.408-.312.72-.696.936-1.152l.774.468a3.905 3.905 0 01-.468.918c-.204.3-.456.576-.756.828-.3.24-.654.438-1.062.594-.408.144-.87.216-1.386.216zm7.785 0c-.936 0-1.644-.228-2.124-.684-.468-.468-.702-1.104-.702-1.908 0-.912.324-1.602.972-2.07.648-.468 1.704-.702 3.168-.702h1.296V7.628c0-.732-.162-1.29-.486-1.674-.324-.384-.834-.576-1.53-.576-.588 0-1.032.084-1.332.252v.072c.132.06.252.168.36.324.12.144.18.348.18.612 0 .336-.102.606-.306.81-.192.204-.474.306-.846.306a1.11 1.11 0 01-.792-.306c-.204-.216-.306-.504-.306-.864 0-.276.078-.54.234-.792.168-.264.408-.498.72-.702a3.94 3.94 0 011.134-.486c.456-.12.978-.18 1.566-.18 1.128 0 1.98.264 2.556.792.576.528.864 1.266.864 2.214v5.616h1.224v.81a3.204 3.204 0 01-1.494.36c-.552 0-.96-.138-1.224-.414-.252-.288-.378-.654-.378-1.098v-.09h-.09a3.195 3.195 0 01-.324.594 2.33 2.33 0 01-.522.504 2.214 2.214 0 01-.756.36c-.3.096-.654.144-1.062.144zm.792-1.26c.528 0 .96-.126 1.296-.378.348-.252.522-.666.522-1.242V9.734h-1.08c-.852 0-1.446.138-1.782.414-.336.276-.504.672-.504 1.188v.342c0 .432.138.756.414.972.276.204.654.306 1.134.306zm6.403.072h1.224V6.08l-1.224-.234v-.792l3.186-.63v1.674h.09a2.52 2.52 0 01.324-.612c.144-.204.324-.384.54-.54.216-.156.468-.282.756-.378.288-.096.618-.144.99-.144.804 0 1.434.15 1.89.45.468.288.792.738.972 1.35h.054c.096-.216.222-.432.378-.648.168-.216.366-.408.594-.576.228-.18.492-.318.792-.414.3-.108.648-.162 1.044-.162 1.116 0 1.908.294 2.376.882.468.576.702 1.446.702 2.61v5.112h1.224V14h-4.392v-.972H32.8V8.024c0-.78-.15-1.35-.45-1.71-.288-.36-.738-.54-1.35-.54-.24 0-.474.036-.702.108-.228.06-.432.162-.612.306-.18.132-.324.306-.432.522-.108.204-.162.45-.162.738v5.58h1.152V14h-4.32v-.972h1.152V8.024c0-.78-.15-1.35-.45-1.71-.288-.36-.738-.54-1.35-.54-.24 0-.474.036-.702.108-.228.06-.432.162-.612.306-.18.132-.324.306-.432.522-.108.204-.162.45-.162.738v5.58h1.152V14h-4.392v-.972zm17.064 3.6h1.224V6.08l-1.224-.234v-.792l3.24-.63v1.62h.09c.192-.432.504-.81.936-1.134.432-.324.996-.486 1.692-.486.576 0 1.098.114 1.566.342.468.216.864.534 1.188.954.324.42.576.936.756 1.548.18.6.27 1.284.27 2.052s-.09 1.458-.27 2.07c-.18.6-.432 1.11-.756 1.53a3.32 3.32 0 01-1.188.972c-.468.216-.99.324-1.566.324-.708 0-1.278-.162-1.71-.486a2.938 2.938 0 01-.918-1.134h-.09v4.032h1.584v.972h-4.824v-.972zm5.328-3.708c.684 0 1.23-.234 1.638-.702.408-.468.612-1.116.612-1.944V8.366c0-.828-.204-1.476-.612-1.944-.408-.468-.954-.702-1.638-.702-.276 0-.54.042-.792.126-.24.072-.462.186-.666.342a1.904 1.904 0 00-.468.558 1.628 1.628 0 00-.162.738v3.672c0 .276.054.522.162.738.12.216.276.402.468.558.204.156.426.276.666.36.252.072.516.108.792.108zm7.266 1.296c-.42 0-.75-.126-.99-.378a1.296 1.296 0 01-.342-.9v-.108c0-.348.114-.648.342-.9.24-.252.57-.378.99-.378.42 0 .744.126.972.378.24.252.36.552.36.9v.108c0 .348-.12.648-.36.9-.228.252-.552.378-.972.378zm6.128-.072c-.684 0-1.164-.144-1.44-.432-.276-.288-.414-.744-.414-1.368v-6.66h-1.224V4.64h.306c.444 0 .75-.078.918-.234.168-.156.306-.384.414-.684l.558-1.584h1.044V4.64h2.25v1.044h-2.25v7.29h2.25v.792c-.204.096-.534.18-.99.252a7.646 7.646 0 01-1.422.126zm3.624-1.116h1.224V6.08l-1.224-.234v-.792l3.186-.63v1.674h.09c.084-.216.186-.42.306-.612.132-.204.288-.384.468-.54.192-.156.408-.282.648-.378a2.36 2.36 0 01.846-.144c.552 0 .99.138 1.314.414.336.276.504.672.504 1.188 0 .408-.108.732-.324.972-.204.228-.486.342-.846.342-.372 0-.666-.096-.882-.288a1.027 1.027 0 01-.306-.756c0-.204.042-.372.126-.504.084-.144.186-.228.306-.252v-.054a.399.399 0 00-.126-.018.96.96 0 00-.216-.018c-.228 0-.456.06-.684.18-.216.12-.414.276-.594.468-.168.18-.306.39-.414.63a1.586 1.586 0 00-.162.684v5.616h1.584V14h-4.824v-.972zm11.104 1.188c-.936 0-1.644-.228-2.124-.684-.468-.468-.702-1.104-.702-1.908 0-.912.324-1.602.972-2.07.648-.468 1.704-.702 3.168-.702h1.296V7.628c0-.732-.162-1.29-.486-1.674-.324-.384-.834-.576-1.53-.576-.588 0-1.032.084-1.332.252v.072c.132.06.252.168.36.324.12.144.18.348.18.612 0 .336-.102.606-.306.81-.192.204-.474.306-.846.306a1.11 1.11 0 01-.792-.306c-.204-.216-.306-.504-.306-.864 0-.276.078-.54.234-.792.168-.264.408-.498.72-.702a3.94 3.94 0 011.134-.486c.456-.12.978-.18 1.566-.18 1.128 0 1.98.264 2.556.792.576.528.864 1.266.864 2.214v5.616h1.224v.81a3.204 3.204 0 01-1.494.36c-.552 0-.96-.138-1.224-.414-.252-.288-.378-.654-.378-1.098v-.09h-.09a3.195 3.195 0 01-.324.594 2.33 2.33 0 01-.522.504 2.214 2.214 0 01-.756.36c-.3.096-.654.144-1.062.144zm.792-1.26c.528 0 .96-.126 1.296-.378.348-.252.522-.666.522-1.242V9.734h-1.08c-.852 0-1.446.138-1.782.414-.336.276-.504.672-.504 1.188v.342c0 .432.138.756.414.972.276.204.654.306 1.134.306zm6.337-7.344h-.9V4.64h4.266v.972H79.95l2.214 6.426h.09l2.214-6.426H83.28V4.64h3.294v.972h-.9L82.505 14H80.94l-3.168-8.388zm13.808 8.604c-.696 0-1.314-.114-1.854-.342a3.833 3.833 0 01-1.368-1.008 4.623 4.623 0 01-.864-1.548 6.533 6.533 0 01-.288-1.998c0-.744.102-1.416.306-2.016.216-.6.51-1.11.882-1.53a3.897 3.897 0 011.35-.99 4.126 4.126 0 011.728-.36c.636 0 1.206.108 1.71.324.504.204.93.498 1.278.882.36.384.636.846.828 1.386.192.54.288 1.14.288 1.8v.486h-6.192v.576c0 .936.234 1.662.702 2.178.468.504 1.098.756 1.89.756.696 0 1.254-.15 1.674-.45.432-.312.75-.696.954-1.152l.774.468c-.108.312-.27.618-.486.918-.204.3-.462.57-.774.81-.312.24-.678.438-1.098.594-.42.144-.9.216-1.44.216zm-2.196-5.868h4.104V8.15c0-.864-.168-1.53-.504-1.998-.324-.48-.828-.72-1.512-.72-.672 0-1.188.234-1.548.702-.36.456-.54 1.116-.54 1.98v.234zm7.468 4.68h1.224V1.976l-1.224-.234V.95l3.24-.63v12.708h1.224V14h-4.464v-.972z" fill="#fff"/></svg>