<svg width="1460" height="127" fill="none" xmlns="http://www.w3.org/2000/svg"><path d="M.456 93.496h9.36l28.8-38.592-28.08-42.912h-7.92V2.488h43.776v9.504h-9.36l17.136 26.496h.864L73.32 11.992h-9.36V2.488h32.256v9.504h-9.36L60.504 47.704l29.952 45.792h7.92V103H54.6v-9.504h9.36L44.952 64.12h-.864L23.496 93.496h9.36V103H.456v-9.504zm103.888 0h7.2l31.248-91.008h19.872l31.248 91.008h7.2V103H158.92v-9.504h11.52l-6.912-21.168h-32.832l-6.912 21.168h11.52V103h-30.96v-9.504zm29.232-31.104h27.36L147.4 20.056h-.576l-13.248 42.336zm75.344 31.104H219V11.992h-10.08V2.488h55.44c10.56 0 18.432 2.352 23.616 7.056 5.28 4.608 7.92 11.424 7.92 20.448 0 9.12-2.832 16.272-8.496 21.456-5.664 5.088-13.776 7.632-24.336 7.632h-20.736v34.416h13.68V103H208.92v-9.504zm33.408-44.784h14.256c4.896 0 8.688-1.152 11.376-3.456 2.784-2.4 4.176-6 4.176-10.8v-7.344c0-4.8-1.392-8.352-4.176-10.656-2.688-2.4-6.48-3.6-11.376-3.6h-14.256v35.856zm64.353 2.448h43.2V67h-43.2V51.16zm56.223 42.336h10.08V11.992h-10.08V2.488h43.488v9.504h-10.08v34.416h12.96l9.36-21.6c2.016-4.608 3.984-8.448 5.904-11.52 1.92-3.072 3.888-5.52 5.904-7.344 2.016-1.92 4.128-3.264 6.336-4.032 2.208-.768 4.56-1.152 7.056-1.152 4.032 0 7.248 1.2 9.648 3.6 2.496 2.4 3.744 5.424 3.744 9.072 0 4.032-1.152 7.2-3.456 9.504-2.208 2.208-5.088 3.312-8.64 3.312-3.168 0-5.664-.816-7.488-2.448-1.728-1.728-2.832-3.744-3.312-6.048h-.576c-.864 1.344-1.872 3.024-3.024 5.04-1.056 2.016-2.112 4.272-3.168 6.768l-8.64 19.584c2.4.192 4.56.624 6.48 1.296a16.531 16.531 0 015.328 2.736c1.632 1.248 3.12 2.784 4.464 4.608 1.344 1.824 2.688 4.08 4.032 6.768l14.256 28.944h8.928V103h-29.952l-23.184-46.656h-12.96v37.152h10.08V103h-43.488v-9.504zm107.578 0h10.08V11.992h-10.08V2.488h42.912v9.504h-10.08v36.864l-1.44 25.2h.576l40.896-59.04v-3.024h-10.08V2.488h42.912v9.504h-10.08v81.504h10.08V103h-42.912v-9.504h10.08V56.632l1.44-25.2h-.576l-40.896 59.04v3.024h10.08V103h-42.912v-9.504zm147.143 0h7.2l31.248-91.008h19.872l31.248 91.008h7.2V103h-42.192v-9.504h11.52l-6.912-21.168h-32.832l-6.912 21.168h11.52V103h-30.96v-9.504zm29.232-31.104h27.36l-13.536-42.336h-.576l-13.248 42.336zm75.344 31.104h10.08V11.992h-10.08V2.488h51.984c5.856 0 10.896.624 15.12 1.872 4.224 1.152 7.68 2.784 10.368 4.896 2.784 2.112 4.8 4.608 6.048 7.488 1.344 2.88 2.016 6 2.016 9.36 0 3.456-.624 6.528-1.872 9.216-1.152 2.688-2.736 4.992-4.752 6.912-2.016 1.824-4.368 3.36-7.056 4.608a34.757 34.757 0 01-8.064 2.736v.72c2.88.384 5.856 1.152 8.928 2.304a29.908 29.908 0 018.352 4.752c2.496 2.016 4.512 4.512 6.048 7.488 1.632 2.88 2.448 6.288 2.448 10.224 0 8.928-2.88 15.84-8.64 20.736-5.76 4.8-14.448 7.2-26.064 7.2h-54.864v-9.504zm33.408-.72h15.984c5.184 0 9.168-1.296 11.952-3.888 2.88-2.592 4.32-6.24 4.32-10.944v-6.768c0-4.704-1.44-8.352-4.32-10.944-2.784-2.592-6.768-3.888-11.952-3.888h-15.984v36.432zm0-46.368h13.392c9.888 0 14.832-4.56 14.832-13.68v-6.336c0-9.12-4.944-13.68-14.832-13.68h-13.392v33.696zm85.323 47.088h13.68v-80.64h-18.72v16.416h-16.704V2.488h94.176v26.784H896.66V12.856h-18.72v80.64h13.68V103h-50.688v-9.504zm127.804.576c2.976 0 5.76-.48 8.352-1.44a17.742 17.742 0 006.768-4.464c2.016-2.016 3.6-4.608 4.752-7.776 1.152-3.168 1.728-6.96 1.728-11.376V36.472c0-4.416-.576-8.208-1.728-11.376-1.152-3.168-2.736-5.76-4.752-7.776a17.742 17.742 0 00-6.768-4.464c-2.592-.96-5.376-1.44-8.352-1.44s-5.76.48-8.352 1.44c-2.592.96-4.896 2.448-6.912 4.464-1.92 2.016-3.456 4.608-4.608 7.776-1.152 3.168-1.728 6.96-1.728 11.376v32.544c0 4.416.576 8.208 1.728 11.376 1.152 3.168 2.688 5.76 4.608 7.776 2.016 2.016 4.32 3.504 6.912 4.464 2.592.96 5.376 1.44 8.352 1.44zm0 10.656c-6.72 0-12.96-1.152-18.72-3.456-5.76-2.304-10.752-5.616-14.976-9.936-4.224-4.416-7.536-9.84-9.936-16.272-2.4-6.528-3.6-13.968-3.6-22.32s1.2-15.744 3.6-22.176c2.4-6.528 5.712-11.952 9.936-16.272 4.224-4.416 9.216-7.776 14.976-10.08 5.76-2.304 12-3.456 18.72-3.456 6.72 0 12.96 1.152 18.72 3.456 5.76 2.304 10.752 5.664 14.974 10.08 4.23 4.32 7.54 9.744 9.94 16.272 2.4 6.432 3.6 13.824 3.6 22.176 0 8.352-1.2 15.792-3.6 22.32-2.4 6.432-5.71 11.856-9.94 16.272-4.222 4.32-9.214 7.632-14.974 9.936-5.76 2.304-12 3.456-18.72 3.456zm49.514-12.24h11.81c5.85-7.392 10.41-16.944 13.68-28.656 3.26-11.712 4.89-25.296 4.89-40.752V11.992h-12.24V2.488h80.07v9.504h-9.94v80.496h15.7v33.552h-18V103h-67.97v23.04h-18V92.488zm64.94 0V13h-23.04v10.944c0 7.2-.38 14.112-1.15 20.736-.77 6.624-1.92 12.864-3.45 18.72-1.44 5.856-3.22 11.28-5.33 16.272-2.02 4.896-4.32 9.168-6.91 12.816h39.88zm94.09 1.584c2.98 0 5.76-.48 8.35-1.44 2.6-.96 4.85-2.448 6.77-4.464 2.02-2.016 3.6-4.608 4.75-7.776 1.16-3.168 1.73-6.96 1.73-11.376V36.472c0-4.416-.57-8.208-1.73-11.376-1.15-3.168-2.73-5.76-4.75-7.776a17.689 17.689 0 00-6.77-4.464c-2.59-.96-5.37-1.44-8.35-1.44-2.97 0-5.76.48-8.35 1.44s-4.9 2.448-6.91 4.464c-1.92 2.016-3.46 4.608-4.61 7.776-1.15 3.168-1.73 6.96-1.73 11.376v32.544c0 4.416.58 8.208 1.73 11.376 1.15 3.168 2.69 5.76 4.61 7.776 2.01 2.016 4.32 3.504 6.91 4.464 2.59.96 5.38 1.44 8.35 1.44zm0 10.656c-6.72 0-12.96-1.152-18.72-3.456-5.76-2.304-10.75-5.616-14.97-9.936-4.23-4.416-7.54-9.84-9.94-16.272-2.4-6.528-3.6-13.968-3.6-22.32s1.2-15.744 3.6-22.176c2.4-6.528 5.71-11.952 9.94-16.272 4.22-4.416 9.21-7.776 14.97-10.08 5.76-2.304 12-3.456 18.72-3.456 6.72 0 12.96 1.152 18.72 3.456 5.76 2.304 10.75 5.664 14.98 10.08 4.22 4.32 7.53 9.744 9.93 16.272 2.4 6.432 3.6 13.824 3.6 22.176 0 8.352-1.2 15.792-3.6 22.32-2.4 6.432-5.71 11.856-9.93 16.272-4.23 4.32-9.22 7.632-14.98 9.936-5.76 2.304-12 3.456-18.72 3.456zm60.59-11.232h10.08V11.992h-10.08V2.488h36.29l22.46 48.384h.58l21.02-48.384h36.87v9.504h-10.08v81.504h10.08V103h-43.49v-9.504h10.08V20.2h-.86l-8.36 21.024-22.03 46.368-21.89-46.368-8.49-21.024h-.87v73.296h10.08V103h-31.39v-9.504zm125.21 0h7.2l31.25-91.008h19.87l31.25 91.008h7.2V103h-42.2v-9.504h11.52l-6.91-21.168h-32.83l-6.91 21.168h11.52V103h-30.96v-9.504zm29.23-31.104h27.36l-13.54-42.336h-.57l-13.25 42.336z" fill="#FAFAFA"/></svg>